<svg width="258" height="78" viewBox="0 0 258 78" fill="none" xmlns="http://www.w3.org/2000/svg">
<rect width="258" height="78" fill="white"/>
<path d="M36.1658 49.7762C36.1658 52.7824 35.1529 55.1187 33.127 56.7852C31.1991 58.517 28.585 59.3829 25.2848 59.3829C24.1738 59.3829 22.9648 59.2522 21.6577 58.9908C20.3507 58.7294 19.1254 58.3536 17.9817 57.8635C17.4262 58.0269 16.8707 58.2066 16.3152 58.4026C15.7924 58.5987 15.3023 58.8274 14.8448 59.0888C14.2567 57.5204 13.6521 55.9846 13.0313 54.4815C12.4431 52.9784 11.855 51.4427 11.2668 49.8742C11.4955 49.7435 11.7079 49.6292 11.904 49.5311C12.1 49.4004 12.3124 49.2861 12.5412 49.188C14.1423 51.7694 15.6944 53.6156 17.1975 54.7266C17.6876 55.1187 18.2594 55.4781 18.913 55.8049C19.5992 56.1317 20.3017 56.4094 21.0206 56.6381C21.7394 56.8995 22.4583 57.0956 23.1772 57.2263C23.896 57.357 24.5496 57.4224 25.1377 57.4224C26.3794 57.4224 27.4904 57.259 28.4707 56.9322C29.4509 56.6055 30.2678 56.148 30.9213 55.5598C32.2937 54.2855 32.9799 52.6027 32.9799 50.5114C32.9799 49.7272 32.8002 48.9593 32.4408 48.2078C32.0813 47.4235 31.6075 46.7864 31.0194 46.2962C29.7123 45.2506 27.1473 44.0743 23.3242 42.7672C20.2853 41.6889 17.8837 40.4309 16.1192 38.9932C13.7665 37.196 12.5902 35.0067 12.5902 32.4253C12.5902 29.7786 13.5378 27.6546 15.433 26.0535C17.2628 24.4524 19.6482 23.6518 22.589 23.6518C23.9941 23.6518 25.3664 23.8479 26.7062 24.24C27.0656 24.3707 27.4087 24.5014 27.7354 24.6321C28.0949 24.7628 28.4216 24.8935 28.7157 25.0242L31.6566 24.044C32.2447 25.547 32.8329 27.0338 33.421 28.5042C34.0092 29.9746 34.5974 31.4614 35.1855 32.9645C34.8261 33.1278 34.4667 33.3076 34.1072 33.5036C32.7349 31.151 31.1664 29.2884 29.4019 27.916C27.278 26.3476 24.9907 25.5634 22.54 25.5634C21.6904 25.5634 20.9062 25.6941 20.1873 25.9555C19.4685 26.1842 18.8149 26.4946 18.2268 26.8868C17.4099 27.4422 16.7727 28.1448 16.3152 28.9943C15.8578 29.8439 15.629 30.8405 15.629 31.9842C15.629 33.8467 16.593 35.3988 18.5209 36.6405C19.5011 37.2287 20.4487 37.7351 21.3637 38.1599C22.2786 38.552 23.4549 38.9768 24.8926 39.4343C26.8859 40.0878 28.5687 40.7577 29.9411 41.4439C31.3135 42.13 32.4081 42.7999 33.225 43.4534C35.1855 45.0219 36.1658 47.1295 36.1658 49.7762ZM59.5504 58.5497H49.9927V56.9812C51.1364 56.9812 51.9369 56.8342 52.3944 56.5401C52.9499 56.1807 53.2276 55.4781 53.2276 54.4325V42.13C53.2276 39.3853 51.9369 38.0129 49.3555 38.0129C47.8198 38.0129 46.5291 38.2743 45.4834 38.7971C45.026 39.0258 44.4868 39.3363 43.866 39.7284C43.2451 40.0878 42.5589 40.5289 41.8074 41.0517V54.4325C41.8074 55.4128 42.0198 56.0663 42.4446 56.3931C42.706 56.5564 43.0654 56.6871 43.5229 56.7852C43.9803 56.9159 44.5358 56.9812 45.1893 56.9812V58.5497H35.6316V56.9812C36.8733 56.9812 37.7719 56.7852 38.3274 56.3931C38.6542 56.0663 38.8175 55.4128 38.8175 54.4325V40.9047C38.8175 40.0225 38.6542 39.467 38.3274 39.2382C37.8699 38.8788 37.0367 38.6991 35.8277 38.6991C35.7624 38.5357 35.7133 38.356 35.6807 38.1599C35.6807 37.9639 35.648 37.7842 35.5826 37.6208C36.6283 37.2613 37.6576 36.9019 38.6705 36.5425C39.7161 36.183 40.7618 35.8236 41.8074 35.4642V38.9441C44.5848 36.6568 47.4113 35.5132 50.2868 35.5132C52.28 35.5132 53.7668 36.085 54.747 37.2287C55.7273 38.405 56.2174 40.0715 56.2174 42.2281V54.3835C56.2174 55.3964 56.4135 56.0663 56.8056 56.3931C57.067 56.5564 57.4265 56.6871 57.8839 56.7852C58.3414 56.9159 58.8969 56.9812 59.5504 56.9812V58.5497ZM62.3132 36.8856C64.2737 35.9706 66.5283 35.5132 69.0771 35.5132C71.1356 35.5132 72.8021 36.0523 74.0765 37.1306C75.4489 38.3723 76.135 40.1041 76.135 42.3261V55.0207C76.135 55.1841 76.135 55.3801 76.135 55.6088C76.1677 55.8376 76.2004 56.0663 76.2331 56.295C76.2984 56.5238 76.3801 56.7198 76.4781 56.8832C76.6088 57.0466 76.7559 57.1283 76.9193 57.1283C77.4094 57.1283 78.1119 56.7688 79.0269 56.05L79.615 56.7852C78.1773 58.517 76.9029 59.3829 75.792 59.3829C74.3542 59.3829 73.4883 58.468 73.1942 56.6381C71.1683 58.468 68.5869 59.3829 65.45 59.3829C64.3717 59.3829 63.3915 59.2685 62.5092 59.0398C61.6596 58.8111 60.9408 58.4516 60.3526 57.9615C59.1436 56.9486 58.5391 55.5272 58.5391 53.6973C58.5391 52.3249 58.9966 51.0996 59.9115 50.0213C60.8591 48.9103 62.0681 47.9954 63.5385 47.2765C66.0545 45.9695 69.2568 45.0709 73.1452 44.5807V41.5419C73.1452 40.2675 72.7531 39.2382 71.9689 38.454C71.5114 37.9965 70.9723 37.6698 70.3514 37.4737C69.7633 37.2777 69.1261 37.1797 68.4399 37.1797C67.1328 37.1797 66.0219 37.4411 65.1069 37.9639C64.5515 38.3233 64.1103 38.6827 63.7836 39.0422C63.4568 39.3689 63.2934 39.7447 63.2934 40.1695V40.4146C63.2934 42.0157 62.5909 42.8162 61.1858 42.8162C59.9115 42.8162 59.2743 42.081 59.2743 40.6106C59.2743 39.0749 60.2873 37.8332 62.3132 36.8856ZM73.1452 46.4433C70.2697 46.7373 67.6066 47.5542 65.156 48.894C62.934 50.1356 61.823 51.7204 61.823 53.6483C61.823 54.6939 62.2478 55.5435 63.0974 56.197C63.9469 56.8179 65.0089 57.1283 66.2833 57.1283C67.4596 57.1283 68.6849 56.8995 69.9593 56.4421C71.0049 56.0826 72.0669 55.4618 73.1452 54.5796V46.4433ZM97.5839 52.668C97.7473 52.7987 97.9107 52.9131 98.0741 53.0111C98.2375 53.1091 98.4008 53.2235 98.5642 53.3542C96.1789 57.406 92.9767 59.4319 88.9575 59.4319C86.082 59.4319 83.6314 58.419 81.6054 56.3931C79.5795 54.1711 78.5666 51.3773 78.5666 48.0117C78.5666 44.5154 79.6776 41.5092 81.8995 38.9932C84.0561 36.6405 86.7519 35.4642 89.9868 35.4642C91.9147 35.4642 93.5975 35.8399 95.0352 36.5915C95.558 36.8529 96.0318 37.1633 96.4566 37.5227C96.9141 37.8822 97.2899 38.307 97.5839 38.7971C97.9107 39.3526 98.0741 39.9081 98.0741 40.4636C98.0741 41.0517 97.9107 41.6072 97.5839 42.13C97.2572 42.6529 96.7671 42.9143 96.1135 42.9143C94.9372 42.9143 94.153 41.9993 93.7609 40.1695C93.6628 39.6794 93.4668 39.2709 93.1727 38.9441C92.8786 38.6174 92.5192 38.3233 92.0944 38.0619C91.2448 37.5391 90.1992 37.2777 88.9575 37.2777C87.095 37.2777 85.4449 38.2416 84.0071 40.1695C82.5694 42.1954 81.8505 44.5807 81.8505 47.3255C81.8505 48.7959 82.0302 50.1356 82.3897 51.3446C82.7818 52.5536 83.3536 53.5993 84.1052 54.4815C85.6409 56.3114 87.5525 57.2263 89.8398 57.2263C92.6499 57.2263 95.2313 55.7069 97.5839 52.668ZM117.368 52.668C117.531 52.7987 117.694 52.9131 117.858 53.0111C118.021 53.1091 118.184 53.2235 118.348 53.3542C115.962 57.406 112.76 59.4319 108.741 59.4319C105.866 59.4319 103.415 58.419 101.389 56.3931C99.3631 54.1711 98.3502 51.3773 98.3502 48.0117C98.3502 44.5154 99.4612 41.5092 101.683 38.9932C103.84 36.6405 106.535 35.4642 109.77 35.4642C111.698 35.4642 113.381 35.8399 114.819 36.5915C115.342 36.8529 115.815 37.1633 116.24 37.5227C116.698 37.8822 117.073 38.307 117.368 38.7971C117.694 39.3526 117.858 39.9081 117.858 40.4636C117.858 41.0517 117.694 41.6072 117.368 42.13C117.041 42.6529 116.551 42.9143 115.897 42.9143C114.721 42.9143 113.937 41.9993 113.544 40.1695C113.446 39.6794 113.25 39.2709 112.956 38.9441C112.662 38.6174 112.303 38.3233 111.878 38.0619C111.028 37.5391 109.983 37.2777 108.741 37.2777C106.879 37.2777 105.228 38.2416 103.791 40.1695C102.353 42.1954 101.634 44.5807 101.634 47.3255C101.634 48.7959 101.814 50.1356 102.173 51.3446C102.565 52.5536 103.137 53.5993 103.889 54.4815C105.425 56.3114 107.336 57.2263 109.623 57.2263C112.433 57.2263 115.015 55.7069 117.368 52.668Z" fill="#242424"/>
<path d="M150.62 24.563V60H144.003V44.5116H127.363V60H120.746V24.563H127.363V39.8063H144.003V24.563H150.62ZM175.8 34.8559V60H172.1C171.299 60 170.793 59.6324 170.58 58.8972L170.164 56.8876C169.134 57.9333 167.999 58.7828 166.757 59.4363C165.516 60.0735 164.053 60.3921 162.371 60.3921C160.998 60.3921 159.781 60.1634 158.719 59.7059C157.673 59.2321 156.791 58.5704 156.072 57.7209C155.353 56.8713 154.806 55.8665 154.43 54.7065C154.071 53.5302 153.891 52.2395 153.891 50.8344V34.8559H159.944V50.8344C159.944 52.3702 160.296 53.5629 160.998 54.4124C161.717 55.2457 162.787 55.6623 164.209 55.6623C165.254 55.6623 166.234 55.4335 167.149 54.9761C168.064 54.5023 168.93 53.8569 169.747 53.04V34.8559H175.8ZM184.915 53.4812C185.601 54.3144 186.344 54.9026 187.145 55.2457C187.962 55.5888 188.819 55.7603 189.718 55.7603C190.649 55.7603 191.482 55.5969 192.218 55.2702C192.969 54.9271 193.606 54.4043 194.129 53.7017C194.652 52.9829 195.052 52.0761 195.33 50.9815C195.608 49.8705 195.747 48.5471 195.747 47.0113C195.747 44.2502 195.289 42.257 194.374 41.0317C193.459 39.79 192.144 39.1691 190.429 39.1691C189.269 39.1691 188.256 39.4387 187.39 39.9779C186.524 40.5007 185.699 41.244 184.915 42.208V53.4812ZM184.915 37.9438C185.928 36.8818 187.047 36.0404 188.272 35.4196C189.514 34.7824 190.927 34.4638 192.512 34.4638C193.966 34.4638 195.273 34.7497 196.433 35.3215C197.609 35.8934 198.606 36.7184 199.423 37.7967C200.256 38.8587 200.893 40.1494 201.334 41.6688C201.775 43.1883 201.996 44.8956 201.996 46.7908C201.996 48.833 201.743 50.6874 201.236 52.3538C200.73 54.0203 200.003 55.4499 199.055 56.6426C198.124 57.8189 196.997 58.7338 195.673 59.3873C194.35 60.0408 192.879 60.3676 191.262 60.3676C190.478 60.3676 189.767 60.2859 189.13 60.1225C188.493 59.9755 187.904 59.7631 187.365 59.4854C186.826 59.2076 186.328 58.8727 185.87 58.4806C185.429 58.0721 185.004 57.6228 184.596 57.1327L184.326 58.8237C184.228 59.2485 184.057 59.5507 183.812 59.7304C183.583 59.9101 183.264 60 182.856 60H178.861V23.5827H184.915V37.9438Z" fill="#242424"/>
<path d="M223.668 13.1175C218.287 13.1175 213.954 15.6459 211.001 19.1052C208.073 22.5364 206.43 26.9614 206.43 30.9722C206.43 33.7417 207.637 37.9867 210.175 43.233C212.74 48.5354 216.743 55.02 222.522 62.3117C223.292 63.2822 224.788 63.3113 225.579 62.3149C230.554 56.0533 234.551 49.8351 237.314 44.3734C240.043 38.9766 241.674 34.1133 241.674 30.624C241.674 20.6916 234.2 13.1175 223.668 13.1175Z" fill="#242424"/>
<path d="M223.668 13.1175C218.287 13.1175 213.954 15.6459 211.001 19.1052C208.073 22.5364 206.43 26.9614 206.43 30.9722C206.43 33.7417 207.637 37.9867 210.175 43.233C212.74 48.5354 216.743 55.02 222.522 62.3117C223.292 63.2822 224.788 63.3113 225.579 62.3149C230.554 56.0533 234.551 49.8351 237.314 44.3734C240.043 38.9766 241.674 34.1133 241.674 30.624C241.674 20.6916 234.2 13.1175 223.668 13.1175Z" fill="url(#paint0_linear_76_37)"/>
<path d="M223.668 13.1175C218.287 13.1175 213.954 15.6459 211.001 19.1052C208.073 22.5364 206.43 26.9614 206.43 30.9722C206.43 33.7417 207.637 37.9867 210.175 43.233C212.74 48.5354 216.743 55.02 222.522 62.3117C223.292 63.2822 224.788 63.3113 225.579 62.3149C230.554 56.0533 234.551 49.8351 237.314 44.3734C240.043 38.9766 241.674 34.1133 241.674 30.624C241.674 20.6916 234.2 13.1175 223.668 13.1175Z" stroke="#242424" stroke-width="3.34329"/>
<path d="M226.758 21.902C227.519 20.687 227.152 19.0475 225.784 18.6205C224.901 18.345 223.98 18.191 223.047 18.1661C221.244 18.1179 219.461 18.5538 217.883 19.4282C216.306 20.3027 214.991 21.5839 214.077 23.1385C213.162 24.6931 212.681 26.4644 212.682 28.2681C212.684 30.0718 213.169 31.8421 214.087 33.3948C215.005 34.9475 216.322 36.2259 217.902 37.097C219.481 37.9682 221.265 38.4003 223.068 38.3484C224.001 38.3215 224.921 38.1655 225.804 37.8882C227.172 37.4584 227.535 35.8181 226.771 34.6046V34.6046C226.008 33.3912 224.352 33.1174 222.919 33.1587V33.1587C222.043 33.1839 221.176 32.974 220.409 32.5509C219.642 32.1278 219.003 31.5068 218.557 30.7527C218.111 29.9985 217.875 29.1387 217.874 28.2627C217.873 27.3866 218.107 26.5263 218.551 25.7712C218.996 25.0161 219.634 24.3938 220.4 23.9691C221.167 23.5444 222.033 23.3327 222.908 23.3561V23.3561C224.342 23.3943 225.997 23.1171 226.758 21.902V21.902Z" fill="#242424"/>
<path d="M221.011 41.8128C220.163 42.9158 220.364 44.5322 221.642 45.0815C222.542 45.468 223.496 45.7234 224.478 45.836C226.298 46.0448 228.141 45.7542 229.809 44.9953C231.477 44.2364 232.907 43.0379 233.945 41.5282C234.984 40.0185 235.592 38.2546 235.704 36.4257C235.817 34.5967 235.429 32.7717 234.583 31.1462C233.737 29.5208 232.465 28.1562 230.902 27.1989C229.34 26.2416 227.546 25.7276 225.714 25.712C224.726 25.7037 223.747 25.8403 222.808 26.1138C221.472 26.5025 221.074 28.0822 221.781 29.2806V29.2806C222.487 30.4791 224.063 30.801 225.454 30.7529C225.526 30.7504 225.599 30.7495 225.671 30.7501C226.589 30.7579 227.487 31.0154 228.27 31.4949C229.053 31.9744 229.69 32.658 230.114 33.4722C230.538 34.2864 230.732 35.2006 230.676 36.1168C230.619 37.0329 230.315 37.9165 229.794 38.6727C229.274 39.4289 228.558 40.0293 227.723 40.4095C226.887 40.7896 225.964 40.9352 225.052 40.8306C224.98 40.8223 224.908 40.8125 224.836 40.8011C223.462 40.5832 221.859 40.7098 221.011 41.8128V41.8128Z" fill="#242424"/>
<defs>
<linearGradient id="paint0_linear_76_37" x1="235.901" y1="20.7894" x2="203.2" y2="32.2761" gradientUnits="userSpaceOnUse">
<stop stop-color="#E2554C"/>
<stop offset="1" stop-color="#EEBDB9"/>
</linearGradient>
</defs>
</svg>
