<svg width="165" height="42" viewBox="0 0 165 42" fill="none" xmlns="http://www.w3.org/2000/svg">
<path d="M19.1195 26.7232C19.1195 28.8303 18.4095 30.4679 16.9895 31.636C15.6382 32.8499 13.8059 33.4568 11.4927 33.4568C10.714 33.4568 9.86656 33.3652 8.95043 33.182C8.0343 32.9987 7.17542 32.7354 6.3738 32.3918C5.98445 32.5063 5.59509 32.6323 5.20573 32.7697C4.83928 32.9071 4.49573 33.0675 4.17508 33.2507C3.76282 32.1513 3.33911 31.0749 2.90394 30.0213C2.49168 28.9678 2.07942 27.8913 1.66716 26.7919C1.82749 26.7003 1.97636 26.6202 2.11378 26.5514C2.2512 26.4598 2.40007 26.3797 2.56039 26.311C3.68266 28.1203 4.77057 29.4144 5.82412 30.1931C6.16767 30.4679 6.56848 30.7199 7.02655 30.9489C7.50752 31.1779 7.99994 31.3726 8.50381 31.5329C9.00769 31.7162 9.51156 31.8536 10.0154 31.9452C10.5193 32.0368 10.9774 32.0826 11.3896 32.0826C12.26 32.0826 13.0387 31.9681 13.7258 31.7391C14.4129 31.51 14.9855 31.1894 15.4435 30.7771C16.4055 29.8839 16.8864 28.7044 16.8864 27.2385C16.8864 26.6889 16.7605 26.1506 16.5085 25.6239C16.2566 25.0742 15.9245 24.6276 15.5122 24.284C14.5961 23.5511 12.7982 22.7266 10.1185 21.8105C7.98849 21.0546 6.30509 20.1729 5.06831 19.1651C3.41927 17.9054 2.59475 16.3709 2.59475 14.5615C2.59475 12.7064 3.25895 11.2177 4.58734 10.0954C5.86993 8.97313 7.54187 8.41199 9.60317 8.41199C10.588 8.41199 11.55 8.54941 12.489 8.82426C12.7409 8.91587 12.9814 9.00748 13.2105 9.09909C13.4624 9.19071 13.6914 9.28232 13.8976 9.37393L15.9589 8.68684C16.3711 9.74039 16.7834 10.7825 17.1956 11.8131C17.6079 12.8438 18.0202 13.8859 18.4324 14.9394C18.1805 15.054 17.9285 15.1799 17.6766 15.3174C16.7147 13.6683 15.6153 12.3628 14.3785 11.4009C12.8898 10.3015 11.2866 9.75184 9.56882 9.75184C8.97333 9.75184 8.42365 9.84345 7.91978 10.0267C7.4159 10.187 6.95784 10.4046 6.54558 10.6794C5.97299 11.0688 5.52638 11.5612 5.20573 12.1567C4.88508 12.7522 4.72476 13.4507 4.72476 14.2523C4.72476 15.5578 5.40041 16.6457 6.75171 17.5161C7.43881 17.9283 8.10301 18.2833 8.7443 18.5811C9.38559 18.8559 10.2101 19.1537 11.2179 19.4743C12.615 19.9324 13.7945 20.4019 14.7564 20.8829C15.7184 21.3638 16.4856 21.8334 17.0582 22.2914C18.4324 23.3908 19.1195 24.8681 19.1195 26.7232ZM35.5104 32.8728H28.8111V31.7734C29.6127 31.7734 30.1739 31.6703 30.4945 31.4642C30.8839 31.2123 31.0786 30.7199 31.0786 29.987V21.3638C31.0786 19.44 30.1739 18.478 28.3645 18.478C27.2881 18.478 26.3834 18.6612 25.6505 19.0277C25.3298 19.188 24.9519 19.4056 24.5167 19.6804C24.0816 19.9324 23.6006 20.2416 23.0738 20.608V29.987C23.0738 30.6741 23.2227 31.1321 23.5204 31.3612C23.7037 31.4757 23.9556 31.5673 24.2763 31.636C24.5969 31.7276 24.9863 31.7734 25.4443 31.7734V32.8728H18.7451V31.7734C19.6154 31.7734 20.2453 31.636 20.6346 31.3612C20.8637 31.1321 20.9782 30.6741 20.9782 29.987V20.505C20.9782 19.8866 20.8637 19.4972 20.6346 19.3369C20.314 19.085 19.7299 18.959 18.8825 18.959C18.8367 18.8445 18.8024 18.7185 18.7795 18.5811C18.7795 18.4437 18.7566 18.3177 18.7107 18.2032C19.4437 17.9512 20.1651 17.6993 20.8751 17.4474C21.608 17.1954 22.3409 16.9435 23.0738 16.6916V19.1308C25.0206 17.5275 27.0018 16.7259 29.0173 16.7259C30.4144 16.7259 31.4565 17.1267 32.1436 17.9283C32.8307 18.7529 33.1742 19.9209 33.1742 21.4325V29.9526C33.1742 30.6626 33.3116 31.1321 33.5865 31.3612C33.7697 31.4757 34.0216 31.5673 34.3423 31.636C34.6629 31.7276 35.0523 31.7734 35.5104 31.7734V32.8728ZM37.4469 17.6879C38.8211 17.0466 40.4014 16.7259 42.1878 16.7259C43.6308 16.7259 44.7988 17.1038 45.6921 17.8596C46.654 18.73 47.135 19.9438 47.135 21.5013V30.3992C47.135 30.5137 47.135 30.6511 47.135 30.8115C47.1579 30.9718 47.1808 31.1321 47.2037 31.2924C47.2495 31.4528 47.3067 31.5902 47.3755 31.7047C47.4671 31.8192 47.5701 31.8765 47.6846 31.8765C48.0282 31.8765 48.5206 31.6245 49.1619 31.1207L49.5742 31.636C48.5664 32.8499 47.6732 33.4568 46.8945 33.4568C45.8867 33.4568 45.2798 32.8155 45.0737 31.5329C43.6537 32.8155 41.8443 33.4568 39.6456 33.4568C38.8898 33.4568 38.2027 33.3766 37.5843 33.2163C36.9888 33.056 36.4849 32.8041 36.0726 32.4605C35.2252 31.7505 34.8015 30.7542 34.8015 29.4716C34.8015 28.5097 35.1222 27.6508 35.7635 26.895C36.4277 26.1163 37.2751 25.475 38.3057 24.9711C40.0693 24.055 42.3138 23.4251 45.0393 23.0816V20.9516C45.0393 20.0583 44.7645 19.3369 44.2148 18.7872C43.8941 18.4666 43.5162 18.2375 43.0811 18.1001C42.6688 17.9627 42.2222 17.894 41.7412 17.894C40.8251 17.894 40.0464 18.0772 39.4051 18.4437C39.0157 18.6956 38.7065 18.9475 38.4775 19.1995C38.2485 19.4285 38.134 19.6919 38.134 19.9896V20.1614C38.134 21.2837 37.6415 21.8448 36.6567 21.8448C35.7635 21.8448 35.3168 21.3295 35.3168 20.2988C35.3168 19.2224 36.0268 18.352 37.4469 17.6879ZM45.0393 24.3871C43.0238 24.5932 41.1572 25.1658 39.4394 26.1048C37.882 26.9752 37.1033 28.086 37.1033 29.4373C37.1033 30.1702 37.401 30.7657 37.9965 31.2237C38.592 31.6589 39.3364 31.8765 40.2296 31.8765C41.0541 31.8765 41.913 31.7162 42.8062 31.3955C43.5391 31.1436 44.2835 30.7084 45.0393 30.09V24.3871ZM62.169 28.7502C62.2836 28.8418 62.3981 28.9219 62.5126 28.9907C62.6271 29.0594 62.7416 29.1395 62.8561 29.2311C61.1842 32.0712 58.9397 33.4912 56.1226 33.4912C54.1071 33.4912 52.3893 32.7812 50.9693 31.3612C49.5493 29.8037 48.8393 27.8455 48.8393 25.4864C48.8393 23.0358 49.618 20.9287 51.1754 19.1651C52.6871 17.5161 54.5766 16.6916 56.844 16.6916C58.1953 16.6916 59.3748 16.9549 60.3826 17.4817C60.749 17.6649 61.0811 17.8825 61.3789 18.1345C61.6995 18.3864 61.9629 18.6841 62.169 19.0277C62.3981 19.4171 62.5126 19.8064 62.5126 20.1958C62.5126 20.608 62.3981 20.9974 62.169 21.3638C61.94 21.7303 61.5965 21.9135 61.1384 21.9135C60.3139 21.9135 59.7642 21.2722 59.4894 19.9896C59.4206 19.6461 59.2832 19.3598 59.0771 19.1308C58.871 18.9017 58.619 18.6956 58.3213 18.5124C57.7258 18.1459 56.9929 17.9627 56.1226 17.9627C54.8171 17.9627 53.6605 18.6383 52.6527 19.9896C51.645 21.4096 51.1411 23.0816 51.1411 25.0055C51.1411 26.0361 51.2671 26.9752 51.519 27.8226C51.7938 28.67 52.1946 29.4029 52.7214 30.0213C53.7979 31.3039 55.1377 31.9452 56.741 31.9452C58.7106 31.9452 60.52 30.8802 62.169 28.7502ZM76.0359 28.7502C76.1504 28.8418 76.2649 28.9219 76.3794 28.9907C76.4939 29.0594 76.6084 29.1395 76.723 29.2311C75.051 32.0712 72.8065 33.4912 69.9894 33.4912C67.9739 33.4912 66.2561 32.7812 64.8361 31.3612C63.4161 29.8037 62.7061 27.8455 62.7061 25.4864C62.7061 23.0358 63.4848 20.9287 65.0423 19.1651C66.5539 17.5161 68.4434 16.6916 70.7108 16.6916C72.0621 16.6916 73.2417 16.9549 74.2494 17.4817C74.6159 17.6649 74.948 17.8825 75.2457 18.1345C75.5663 18.3864 75.8297 18.6841 76.0359 19.0277C76.2649 19.4171 76.3794 19.8064 76.3794 20.1958C76.3794 20.608 76.2649 20.9974 76.0359 21.3638C75.8068 21.7303 75.4633 21.9135 75.0052 21.9135C74.1807 21.9135 73.631 21.2722 73.3562 19.9896C73.2875 19.6461 73.15 19.3598 72.9439 19.1308C72.7378 18.9017 72.4858 18.6956 72.1881 18.5124C71.5926 18.1459 70.8597 17.9627 69.9894 17.9627C68.6839 17.9627 67.5273 18.6383 66.5195 19.9896C65.5118 21.4096 65.0079 23.0816 65.0079 25.0055C65.0079 26.0361 65.1339 26.9752 65.3858 27.8226C65.6606 28.67 66.0615 29.4029 66.5882 30.0213C67.6647 31.3039 69.0045 31.9452 70.6078 31.9452C72.5775 31.9452 74.3868 30.8802 76.0359 28.7502Z" fill="#242424"/>
<path d="M99.3433 9.74231V34.581H94.7054V23.7248H83.0418V34.581H78.4039V9.74231H83.0418V20.4267H94.7054V9.74231H99.3433ZM116.993 16.9569V34.581H114.399C113.838 34.581 113.483 34.3233 113.334 33.808L113.042 32.3994C112.321 33.1324 111.525 33.7278 110.654 34.1859C109.784 34.6325 108.759 34.8558 107.58 34.8558C106.618 34.8558 105.765 34.6955 105.02 34.3749C104.287 34.0428 103.669 33.579 103.165 32.9835C102.661 32.388 102.278 31.6837 102.014 30.8707C101.762 30.0461 101.636 29.1414 101.636 28.1566V16.9569H105.879V28.1566C105.879 29.2331 106.125 30.069 106.618 30.6645C107.122 31.2486 107.872 31.5406 108.868 31.5406C109.601 31.5406 110.288 31.3803 110.929 31.0596C111.571 30.7275 112.178 30.2752 112.75 29.7026V16.9569H116.993ZM123.381 30.0118C123.862 30.5958 124.383 31.0081 124.945 31.2486C125.517 31.489 126.118 31.6093 126.748 31.6093C127.401 31.6093 127.985 31.4948 128.5 31.2657C129.027 31.0252 129.474 30.6588 129.84 30.1664C130.207 29.6625 130.487 29.0269 130.682 28.2597C130.876 27.481 130.974 26.5534 130.974 25.4769C130.974 23.5416 130.653 22.1445 130.012 21.2856C129.371 20.4153 128.449 19.9801 127.246 19.9801C126.433 19.9801 125.723 20.1691 125.116 20.547C124.509 20.9134 123.931 21.4345 123.381 22.1101V30.0118ZM123.381 19.1212C124.091 18.3769 124.876 17.7871 125.735 17.3519C126.605 16.9053 127.596 16.682 128.706 16.682C129.726 16.682 130.642 16.8824 131.455 17.2832C132.279 17.684 132.978 18.2624 133.55 19.0182C134.134 19.7625 134.581 20.6672 134.89 21.7322C135.199 22.7972 135.354 23.9939 135.354 25.3223C135.354 26.7538 135.177 28.0535 134.822 29.2216C134.467 30.3897 133.957 31.3917 133.293 32.2277C132.64 33.0522 131.85 33.6935 130.922 34.1516C129.995 34.6096 128.964 34.8387 127.83 34.8387C127.281 34.8387 126.783 34.7814 126.336 34.6669C125.889 34.5638 125.477 34.4149 125.099 34.2203C124.721 34.0256 124.372 33.7908 124.051 33.516C123.742 33.2297 123.444 32.9148 123.158 32.5712L122.969 33.7565C122.9 34.0542 122.78 34.2661 122.608 34.392C122.448 34.518 122.225 34.581 121.938 34.581H119.139V9.05521H123.381V19.1212Z" fill="#242424"/>
<path d="M150.049 34.3904L150.152 34.4722C150.152 34.4722 150.152 34.4722 150.152 34.4722L150.049 34.3904ZM150.049 34.3904C150.056 34.382 150.063 34.3739 150.069 34.3658L150.069 34.3654C150.063 34.3737 150.056 34.3821 150.049 34.3904ZM149.742 35.8458C150.281 36.5261 151.329 36.5465 151.884 35.848C155.371 31.4591 158.173 27.1006 160.109 23.2723C162.023 19.4897 163.165 16.0808 163.165 13.6351C163.165 6.6732 157.926 1.36431 150.545 1.36431C146.773 1.36431 143.736 3.13654 141.666 5.56123C139.613 7.96629 138.462 11.0679 138.462 13.8792C138.462 15.8204 139.308 18.7958 141.087 22.473C142.885 26.1897 145.69 30.7348 149.742 35.8458Z" fill="#242424"/>
<path d="M150.049 34.3904L150.152 34.4722C150.152 34.4722 150.152 34.4722 150.152 34.4722L150.049 34.3904ZM150.049 34.3904C150.056 34.382 150.063 34.3739 150.069 34.3658L150.069 34.3654C150.063 34.3737 150.056 34.3821 150.049 34.3904ZM149.742 35.8458C150.281 36.5261 151.329 36.5465 151.884 35.848C155.371 31.4591 158.173 27.1006 160.109 23.2723C162.023 19.4897 163.165 16.0808 163.165 13.6351C163.165 6.6732 157.926 1.36431 150.545 1.36431C146.773 1.36431 143.736 3.13654 141.666 5.56123C139.613 7.96629 138.462 11.0679 138.462 13.8792C138.462 15.8204 139.308 18.7958 141.087 22.473C142.885 26.1897 145.69 30.7348 149.742 35.8458Z" fill="url(#paint0_linear_76_37)"/>
<path d="M150.049 34.3904L150.152 34.4722C150.152 34.4722 150.152 34.4722 150.152 34.4722L150.049 34.3904ZM150.049 34.3904C150.056 34.382 150.063 34.3739 150.069 34.3658L150.069 34.3654C150.063 34.3737 150.056 34.3821 150.049 34.3904ZM149.742 35.8458C150.281 36.5261 151.329 36.5465 151.884 35.848C155.371 31.4591 158.173 27.1006 160.109 23.2723C162.023 19.4897 163.165 16.0808 163.165 13.6351C163.165 6.6732 157.926 1.36431 150.545 1.36431C146.773 1.36431 143.736 3.13654 141.666 5.56123C139.613 7.96629 138.462 11.0679 138.462 13.8792C138.462 15.8204 139.308 18.7958 141.087 22.473C142.885 26.1897 145.69 30.7348 149.742 35.8458Z" stroke="#242424" stroke-width="2.3434"/>
<path d="M152.71 7.52159C153.244 6.66993 152.987 5.52076 152.028 5.2215C151.409 5.0284 150.763 4.92044 150.109 4.90298C148.845 4.86924 147.596 5.17473 146.49 5.78767C145.384 6.40061 144.463 7.29861 143.822 8.38828C143.181 9.47795 142.843 10.7195 142.845 11.9838C142.846 13.248 143.186 14.4888 143.829 15.5772C144.473 16.6655 145.396 17.5616 146.503 18.1722C147.61 18.7828 148.86 19.0857 150.124 19.0493C150.778 19.0304 151.423 18.9211 152.042 18.7267C153 18.4254 153.255 17.2757 152.72 16.4252V16.4252C152.185 15.5747 151.024 15.3827 150.019 15.4117V15.4117C149.406 15.4294 148.798 15.2823 148.261 14.9857C147.723 14.6891 147.274 14.2539 146.962 13.7253C146.649 13.1967 146.484 12.594 146.484 11.9799C146.483 11.3659 146.647 10.7629 146.958 10.2336C147.27 9.70434 147.717 9.26818 148.254 8.97047C148.791 8.67276 149.398 8.52439 150.012 8.54078V8.54078C151.017 8.5676 152.177 8.37325 152.71 7.52159V7.52159Z" fill="#242424"/>
<path d="M148.682 21.4775C148.088 22.2506 148.229 23.3837 149.125 23.7687C149.755 24.0396 150.424 24.2186 151.112 24.2975C152.388 24.4439 153.68 24.2402 154.849 23.7083C156.018 23.1763 157.02 22.3362 157.748 21.2781C158.476 20.2199 158.902 18.9835 158.981 17.7016C159.06 16.4196 158.788 15.1404 158.195 14.0011C157.602 12.8618 156.71 11.9053 155.615 11.2343C154.52 10.5633 153.263 10.203 151.979 10.1921C151.286 10.1863 150.6 10.282 149.941 10.4737C149.005 10.7462 148.726 11.8534 149.222 12.6935V12.6935C149.717 13.5335 150.821 13.7591 151.796 13.7254C151.847 13.7237 151.898 13.723 151.949 13.7234C152.592 13.7289 153.222 13.9094 153.77 14.2455C154.319 14.5816 154.766 15.0607 155.063 15.6314C155.36 16.2021 155.496 16.8429 155.456 17.4851C155.417 18.1272 155.203 18.7465 154.839 19.2766C154.474 19.8067 153.972 20.2275 153.386 20.4939C152.801 20.7604 152.154 20.8624 151.515 20.7891C151.464 20.7833 151.414 20.7764 151.363 20.7684C150.4 20.6157 149.276 20.7044 148.682 21.4775V21.4775Z" fill="#242424"/>
<defs>
<linearGradient id="paint0_linear_76_37" x1="159.119" y1="6.74179" x2="136.198" y2="14.7931" gradientUnits="userSpaceOnUse">
<stop stop-color="#E2554C"/>
<stop offset="1" stop-color="#EEBDB9"/>
</linearGradient>
</defs>
</svg>
