<svg width="234" height="60" viewBox="0 0 234 60" fill="none" xmlns="http://www.w3.org/2000/svg">
<path d="M26.5165 39.0344C26.5165 42.0406 25.5035 44.3769 23.4776 46.0434C21.5497 47.7752 18.9357 48.6411 15.6354 48.6411C14.5244 48.6411 13.3154 48.5104 12.0084 48.249C10.7013 47.9876 9.476 47.6119 8.33235 47.1217C7.77686 47.2851 7.22137 47.4648 6.66588 47.6609C6.14306 47.8569 5.65293 48.0857 5.19546 48.3471C4.6073 46.7786 4.00279 45.2429 3.38195 43.7398C2.79379 42.2367 2.20562 40.7009 1.61746 39.1325C1.84619 39.0018 2.05858 38.8874 2.25464 38.7894C2.45069 38.6587 2.66308 38.5443 2.89181 38.4463C4.49293 41.0277 6.04504 42.8739 7.54813 43.9848C8.03826 44.3769 8.61009 44.7364 9.26361 45.0631C9.9498 45.3899 10.6523 45.6676 11.3712 45.8964C12.0901 46.1578 12.8089 46.3538 13.5278 46.4845C14.2467 46.6152 14.9002 46.6806 15.4884 46.6806C16.73 46.6806 17.841 46.5172 18.8213 46.1905C19.8016 45.8637 20.6185 45.4062 21.272 44.8181C22.6444 43.5437 23.3306 41.8609 23.3306 39.7696C23.3306 38.9854 23.1509 38.2175 22.7914 37.466C22.432 36.6818 21.9582 36.0446 21.37 35.5545C20.063 34.5088 17.4979 33.3325 13.6749 32.0255C10.636 30.9472 8.23432 29.6891 6.46982 28.2514C4.11716 26.4542 2.94083 24.2649 2.94083 21.6836C2.94083 19.0368 3.88843 16.9129 5.78363 15.3118C7.61348 13.7106 9.99882 12.9101 12.9396 12.9101C14.3447 12.9101 15.7171 13.1061 17.0568 13.4982C17.4162 13.6289 17.7593 13.7597 18.0861 13.8904C18.4455 14.0211 18.7723 14.1518 19.0664 14.2825L22.0072 13.3022C22.5954 14.8053 23.1835 16.292 23.7717 17.7624C24.3599 19.2329 24.948 20.7196 25.5362 22.2227C25.1768 22.3861 24.8173 22.5658 24.4579 22.7619C23.0855 20.4092 21.5171 18.5467 19.7526 17.1743C17.6286 15.6058 15.3413 14.8216 12.8906 14.8216C12.0411 14.8216 11.2568 14.9523 10.538 15.2137C9.8191 15.4425 9.16558 15.7529 8.57742 16.145C7.76052 16.7005 7.12334 17.403 6.66588 18.2526C6.20842 19.1022 5.97968 20.0988 5.97968 21.2424C5.97968 23.105 6.94362 24.6571 8.8715 25.8987C9.85178 26.4869 10.7994 26.9934 11.7143 27.4182C12.6292 27.8103 13.8056 28.2351 15.2433 28.6925C17.2365 29.346 18.9193 30.0159 20.2917 30.7021C21.6641 31.3883 22.7587 32.0581 23.5756 32.7117C25.5362 34.2801 26.5165 36.3877 26.5165 39.0344ZM49.901 47.8079H40.3433V46.2395C41.487 46.2395 42.2876 46.0924 42.745 45.7983C43.3005 45.4389 43.5783 44.7364 43.5783 43.6908V31.3883C43.5783 28.6435 42.2876 27.2711 39.7062 27.2711C38.1704 27.2711 36.8797 27.5325 35.8341 28.0553C35.3766 28.2841 34.8375 28.5945 34.2166 28.9866C33.5958 29.346 32.9096 29.7872 32.158 30.31V43.6908C32.158 44.671 32.3704 45.3245 32.7952 45.6513C33.0566 45.8147 33.4161 45.9454 33.8735 46.0434C34.331 46.1741 34.8865 46.2395 35.54 46.2395V47.8079H25.9823V46.2395C27.224 46.2395 28.1226 46.0434 28.6781 45.6513C29.0048 45.3245 29.1682 44.671 29.1682 43.6908V30.1629C29.1682 29.2807 29.0048 28.7252 28.6781 28.4965C28.2206 28.137 27.3874 27.9573 26.1784 27.9573C26.113 27.7939 26.064 27.6142 26.0313 27.4182C26.0313 27.2221 25.9986 27.0424 25.9333 26.879C26.9789 26.5196 28.0082 26.1601 29.0212 25.8007C30.0668 25.4413 31.1124 25.0818 32.158 24.7224V28.2024C34.9355 25.9151 37.7619 24.7714 40.6374 24.7714C42.6307 24.7714 44.1174 25.3432 45.0977 26.4869C46.078 27.6632 46.5681 29.3297 46.5681 31.4863V43.6417C46.5681 44.6547 46.7642 45.3245 47.1563 45.6513C47.4177 45.8147 47.7771 45.9454 48.2346 46.0434C48.692 46.1741 49.2475 46.2395 49.901 46.2395V47.8079ZM52.6638 26.1438C54.6244 25.2289 56.879 24.7714 59.4277 24.7714C61.4863 24.7714 63.1528 25.3106 64.4271 26.3889C65.7995 27.6306 66.4857 29.3624 66.4857 31.5843V44.2789C66.4857 44.4423 66.4857 44.6384 66.4857 44.8671C66.5184 45.0958 66.551 45.3245 66.5837 45.5533C66.6491 45.782 66.7308 45.9781 66.8288 46.1414C66.9595 46.3048 67.1065 46.3865 67.2699 46.3865C67.7601 46.3865 68.4626 46.0271 69.3775 45.3082L69.9657 46.0434C68.5279 47.7752 67.2536 48.6411 66.1426 48.6411C64.7049 48.6411 63.8389 47.7262 63.5449 45.8964C61.519 47.7262 58.9376 48.6411 55.8007 48.6411C54.7224 48.6411 53.7421 48.5268 52.8599 48.298C52.0103 48.0693 51.2914 47.7099 50.7032 47.2197C49.4942 46.2068 48.8897 44.7854 48.8897 42.9555C48.8897 41.5832 49.3472 40.3578 50.2621 39.2795C51.2097 38.1685 52.4187 37.2536 53.8891 36.5347C56.4052 35.2277 59.6074 34.3291 63.4959 33.839V30.8001C63.4959 29.5258 63.1037 28.4965 62.3195 27.7123C61.8621 27.2548 61.3229 26.928 60.7021 26.732C60.1139 26.5359 59.4767 26.4379 58.7905 26.4379C57.4835 26.4379 56.3725 26.6993 55.4576 27.2221C54.9021 27.5815 54.461 27.941 54.1342 28.3004C53.8075 28.6272 53.6441 29.0029 53.6441 29.4277V29.6728C53.6441 31.2739 52.9415 32.0745 51.5365 32.0745C50.2621 32.0745 49.6249 31.3393 49.6249 29.8689C49.6249 28.3331 50.6379 27.0914 52.6638 26.1438ZM63.4959 35.7015C60.6204 35.9956 57.9573 36.8125 55.5066 38.1522C53.2846 39.3939 52.1737 40.9787 52.1737 42.9065C52.1737 43.9522 52.5984 44.8017 53.448 45.4552C54.2976 46.0761 55.3596 46.3865 56.6339 46.3865C57.8103 46.3865 59.0356 46.1578 60.31 45.7003C61.3556 45.3409 62.4175 44.72 63.4959 43.8378V35.7015ZM87.9346 41.9263C88.098 42.057 88.2614 42.1713 88.4247 42.2694C88.5881 42.3674 88.7515 42.4817 88.9149 42.6124C86.5295 46.6643 83.3273 48.6902 79.3082 48.6902C76.4327 48.6902 73.982 47.6772 71.9561 45.6513C69.9302 43.4293 68.9172 40.6356 68.9172 37.2699C68.9172 33.7736 70.0282 30.7674 72.2502 28.2514C74.4068 25.8987 77.1025 24.7224 80.3375 24.7224C82.2653 24.7224 83.9481 25.0982 85.3859 25.8497C85.9087 26.1111 86.3825 26.4216 86.8073 26.781C87.2647 27.1404 87.6405 27.5652 87.9346 28.0553C88.2614 28.6108 88.4247 29.1663 88.4247 29.7218C88.4247 30.31 88.2614 30.8655 87.9346 31.3883C87.6078 31.9111 87.1177 32.1725 86.4642 32.1725C85.2878 32.1725 84.5036 31.2576 84.1115 29.4277C84.0135 28.9376 83.8174 28.5291 83.5234 28.2024C83.2293 27.8756 82.8698 27.5815 82.445 27.3201C81.5955 26.7973 80.5498 26.5359 79.3082 26.5359C77.4456 26.5359 75.7955 27.4999 74.3578 29.4277C72.92 31.4536 72.2012 33.839 72.2012 36.5837C72.2012 38.0542 72.3809 39.3939 72.7403 40.6029C73.1324 41.8119 73.7043 42.8575 74.4558 43.7398C75.9916 45.5696 77.9031 46.4845 80.1904 46.4845C83.0005 46.4845 85.5819 44.9651 87.9346 41.9263ZM107.718 41.9263C107.882 42.057 108.045 42.1713 108.208 42.2694C108.372 42.3674 108.535 42.4817 108.698 42.6124C106.313 46.6643 103.111 48.6902 99.0917 48.6902C96.2163 48.6902 93.7656 47.6772 91.7397 45.6513C89.7138 43.4293 88.7008 40.6356 88.7008 37.2699C88.7008 33.7736 89.8118 30.7674 92.0338 28.2514C94.1904 25.8987 96.8861 24.7224 100.121 24.7224C102.049 24.7224 103.732 25.0982 105.169 25.8497C105.692 26.1111 106.166 26.4216 106.591 26.781C107.048 27.1404 107.424 27.5652 107.718 28.0553C108.045 28.6108 108.208 29.1663 108.208 29.7218C108.208 30.31 108.045 30.8655 107.718 31.3883C107.391 31.9111 106.901 32.1725 106.248 32.1725C105.071 32.1725 104.287 31.2576 103.895 29.4277C103.797 28.9376 103.601 28.5291 103.307 28.2024C103.013 27.8756 102.653 27.5815 102.229 27.3201C101.379 26.7973 100.333 26.5359 99.0917 26.5359C97.2292 26.5359 95.5791 27.4999 94.1414 29.4277C92.7036 31.4536 91.9847 33.839 91.9847 36.5837C91.9847 38.0542 92.1645 39.3939 92.5239 40.6029C92.916 41.8119 93.4878 42.8575 94.2394 43.7398C95.7751 45.5696 97.6867 46.4845 99.974 46.4845C102.784 46.4845 105.366 44.9651 107.718 41.9263Z" fill="#242424"/>
<path d="M140.971 13.8213V49.2582H134.354V33.7699H117.714V49.2582H111.097V13.8213H117.714V29.0646H134.354V13.8213H140.971ZM166.151 24.1142V49.2582H162.45C161.65 49.2582 161.143 48.8906 160.931 48.1554L160.514 46.1459C159.485 47.1915 158.35 48.0411 157.108 48.6946C155.866 49.3318 154.404 49.6504 152.721 49.6504C151.349 49.6504 150.132 49.4216 149.07 48.9642C148.024 48.4904 147.142 47.8287 146.423 46.9791C145.704 46.1295 145.157 45.1247 144.781 43.9647C144.422 42.7884 144.242 41.4977 144.242 40.0927V24.1142H150.295V40.0927C150.295 41.6284 150.646 42.8211 151.349 43.6707C152.068 44.5039 153.138 44.9205 154.559 44.9205C155.605 44.9205 156.585 44.6918 157.5 44.2343C158.415 43.7605 159.281 43.1152 160.098 42.2983V24.1142H166.151ZM175.265 42.7394C175.951 43.5726 176.695 44.1608 177.495 44.5039C178.312 44.847 179.17 45.0185 180.069 45.0185C181 45.0185 181.833 44.8552 182.568 44.5284C183.32 44.1853 183.957 43.6625 184.48 42.96C185.003 42.2411 185.403 41.3343 185.681 40.2397C185.958 39.1287 186.097 37.8053 186.097 36.2696C186.097 33.5085 185.64 31.5152 184.725 30.2899C183.81 29.0482 182.495 28.4274 180.779 28.4274C179.619 28.4274 178.606 28.6969 177.74 29.2361C176.875 29.7589 176.05 30.5023 175.265 31.4662V42.7394ZM175.265 27.202C176.278 26.1401 177.397 25.2987 178.623 24.6778C179.864 24.0406 181.278 23.722 182.862 23.722C184.317 23.722 185.624 24.008 186.784 24.5798C187.96 25.1516 188.956 25.9767 189.773 27.055C190.607 28.117 191.244 29.4076 191.685 30.9271C192.126 32.4465 192.347 34.1538 192.347 36.049C192.347 38.0913 192.093 39.9456 191.587 41.6121C191.08 43.2786 190.353 44.7081 189.406 45.9008C188.475 47.0771 187.347 47.992 186.024 48.6456C184.7 49.2991 183.23 49.6258 181.613 49.6258C180.828 49.6258 180.118 49.5442 179.48 49.3808C178.843 49.2337 178.255 49.0213 177.716 48.7436C177.177 48.4658 176.679 48.1309 176.221 47.7388C175.78 47.3304 175.355 46.8811 174.947 46.3909L174.677 48.0819C174.579 48.5067 174.408 48.8089 174.162 48.9887C173.934 49.1684 173.615 49.2582 173.207 49.2582H169.212V12.841H175.265V27.202Z" fill="#242424"/>
<path d="M214.019 2.37572C208.638 2.37572 204.304 4.90413 201.352 8.3634C198.423 11.7947 196.78 16.2196 196.78 20.2305C196.78 23 197.988 27.2449 200.526 32.4912C203.091 37.7937 207.093 44.2782 212.873 51.5699C213.642 52.5405 215.138 52.5696 215.93 51.5732C220.904 45.3115 224.902 39.0934 227.664 33.6316C230.394 28.2349 232.024 23.3715 232.024 19.8822C232.024 9.94983 224.55 2.37572 214.019 2.37572Z" fill="#242424"/>
<path d="M214.019 2.37572C208.638 2.37572 204.304 4.90413 201.352 8.3634C198.423 11.7947 196.78 16.2196 196.78 20.2305C196.78 23 197.988 27.2449 200.526 32.4912C203.091 37.7937 207.093 44.2782 212.873 51.5699C213.642 52.5405 215.138 52.5696 215.93 51.5732C220.904 45.3115 224.902 39.0934 227.664 33.6316C230.394 28.2349 232.024 23.3715 232.024 19.8822C232.024 9.94983 224.55 2.37572 214.019 2.37572Z" fill="url(#paint0_linear_76_37)"/>
<path d="M214.019 2.37572C208.638 2.37572 204.304 4.90413 201.352 8.3634C198.423 11.7947 196.78 16.2196 196.78 20.2305C196.78 23 197.988 27.2449 200.526 32.4912C203.091 37.7937 207.093 44.2782 212.873 51.5699C213.642 52.5405 215.138 52.5696 215.93 51.5732C220.904 45.3115 224.902 39.0934 227.664 33.6316C230.394 28.2349 232.024 23.3715 232.024 19.8822C232.024 9.94983 224.55 2.37572 214.019 2.37572Z" stroke="#242424" stroke-width="3.34329"/>
<path d="M217.109 11.1602C217.87 9.94519 217.503 8.30569 216.134 7.87874C215.251 7.60325 214.331 7.44922 213.398 7.42432C211.594 7.37618 209.811 7.81201 208.234 8.68648C206.656 9.56096 205.342 10.8421 204.427 12.3967C203.513 13.9514 203.031 15.7226 203.033 17.5263C203.035 19.3301 203.52 21.1003 204.438 22.653C205.356 24.2057 206.673 25.4841 208.252 26.3553C209.832 27.2264 211.616 27.6585 213.419 27.6066C214.352 27.5797 215.272 27.4238 216.155 27.1464C217.522 26.7166 217.886 25.0763 217.122 23.8629V23.8629C216.358 22.6494 214.702 22.3756 213.269 22.4169V22.4169C212.394 22.4421 211.527 22.2323 210.76 21.8091C209.993 21.386 209.353 20.7651 208.907 20.0109C208.462 19.2568 208.226 18.397 208.225 17.5209C208.224 16.6448 208.458 15.7845 208.902 15.0294C209.346 14.2743 209.985 13.6521 210.751 13.2273C211.517 12.8026 212.383 12.5909 213.259 12.6143V12.6143C214.692 12.6526 216.348 12.3753 217.109 11.1602V11.1602Z" fill="#242424"/>
<path d="M211.361 31.071C210.513 32.174 210.715 33.7905 211.993 34.3398C212.892 34.7262 213.847 34.9816 214.828 35.0942C216.649 35.303 218.492 35.0124 220.16 34.2535C221.828 33.4947 223.257 32.2961 224.296 30.7864C225.335 29.2767 225.943 27.5129 226.055 25.6839C226.167 23.8549 225.78 22.0299 224.934 20.4045C224.088 18.779 222.815 17.4145 221.253 16.4572C219.69 15.4998 217.897 14.9858 216.065 14.9703C215.077 14.9619 214.098 15.0985 213.158 15.372C211.822 15.7608 211.425 17.3404 212.131 18.5389V18.5389C212.838 19.7374 214.414 20.0592 215.804 20.0112C215.877 20.0087 215.949 20.0077 216.022 20.0083C216.94 20.0161 217.838 20.2736 218.621 20.7531C219.403 21.2327 220.041 21.9162 220.465 22.7304C220.888 23.5446 221.082 24.4588 221.026 25.375C220.97 26.2912 220.665 27.1747 220.145 27.931C219.625 28.6872 218.909 29.2876 218.073 29.6677C217.238 30.0478 216.315 30.1934 215.403 30.0888C215.33 30.0805 215.259 30.0707 215.187 30.0594C213.813 29.8415 212.209 29.968 211.361 31.071V31.071Z" fill="#242424"/>
<defs>
<linearGradient id="paint0_linear_76_37" x1="226.251" y1="10.0477" x2="193.551" y2="21.5344" gradientUnits="userSpaceOnUse">
<stop stop-color="#E2554C"/>
<stop offset="1" stop-color="#EEBDB9"/>
</linearGradient>
</defs>
</svg>
